# xmcd
#
# Track frame offsets:
#	150
#	21796
#	46124
#	55887
#	98962
#	121574
#	143621
#	169001
#	189838
#	201511
#	230055
#	251085
#
# Disc length: 3679 seconds
#
# Revision: 0
# Processed by: cddbd v1.4PL0 Copyright (c) Steve Scherf et al.
# Submitted via: dBpowerAMP V4.0
#
DISCID=9c0e5d0c
DTITLE=Dave Meniketti - On the blue side
DYEAR=1821
DGENRE=Blues
TTITLE0=Mans World
TTITLE1=Angel on my shoulder
TTITLE2=Can't do nothing right
TTITLE3=Loan me a dime
TTITLE4=Untill the next time
TTITLE5=Just coastin
TTITLE6=Bad feeling
TTITLE7=Say goodbye
TTITLE8=Parchman farm
TTITLE9=Tell it like a man
TTITLE10=Baby blues
TTITLE11=Mister blister
EXTD=
EXTT0=
EXTT1=
EXTT2=
EXTT3=
EXTT4=
EXTT5=
EXTT6=
EXTT7=
EXTT8=
EXTT9=
EXTT10=
EXTT11=
PLAYORDER=
